<?xml version="1.0" encoding="utf-8"?>
<!-- Generator: Adobe Illustrator 16.0.0, SVG Export Plug-In . SVG Version: 6.00 Build 0)  -->
<!DOCTYPE svg PUBLIC "-//W3C//DTD SVG 1.1//EN" "http://www.w3.org/Graphics/SVG/1.1/DTD/svg11.dtd">
<svg version="1.1" id="Layer_1" xmlns="http://www.w3.org/2000/svg" xmlns:xlink="http://www.w3.org/1999/xlink" x="0px" y="0px"
	 width="712.512px" height="123.431px" viewBox="0 0 712.512 123.431" enable-background="new 0 0 712.512 123.431"
	 xml:space="preserve">
<g>
	<path fill-rule="evenodd" clip-rule="evenodd" fill="#EC262A" d="M132.156,0c9.153,3.5,14.864,11.352,21.896,17.497
		c7.985,6.977,15.631,14.343,23.402,21.564c3.982,3.7,3.624,5.763-1.302,7.839c-3.442,1.452-6.893,2.887-10.384,4.349
		c0.118,1.691,1.661,2.09,2.609,2.943c6.581,5.92,7.863,13.83,3.479,21.262c-1.262,2.14-2.921,3.591-5.237,4.525
		C131.851,94.005,97.07,108.001,62.38,122.219c-4.892,2.005-9.225,1.316-13.672-0.565c-8.74-3.699-16.109-9.45-23.018-15.817
		C16.645,97.5,8.53,88.401,3.292,77.096C2.062,74.44,1.09,71.664,0,68.942c0-3.25,0-6.501,0-9.751
		c2.472-6.938,6.45-12.693,13.503-15.509C50.061,29.09,86.659,14.603,123.243,0.079C126.214,0.053,129.185,0.026,132.156,0z
		 M28.238,44.883c1.961,1.759,3.63,3.08,5.095,4.599c10.665,11.06,21.338,22.112,31.882,33.287c1.937,2.053,3.499,2.278,6.085,1.184
		c32.146-13.605,64.337-27.103,96.551-40.546c2.648-1.105,2.887-1.835,0.697-3.827c-9.979-9.076-20.102-18.02-29.636-27.547
		c-6.202-6.197-12.524-6.53-20.083-3.414c-17.167,7.076-34.429,13.926-51.671,20.823C54.33,34.572,41.473,39.634,28.238,44.883z
		 M66.685,113.475c1.232-0.445,1.921-0.669,2.59-0.939c31.189-12.593,62.377-25.186,93.562-37.789
		c4.625-1.87,6.63-6.705,4.73-11.297c-2.263-5.471-8.794-9.249-12.958-7.501c-28.024,11.764-56.065,23.489-84.053,35.339
		c-3.109,1.316-5.2,1.002-7.538-1.555c-5.894-6.447-12.681-12.168-17.961-19.06c-5.382-7.026-10.817-7.834-18.287-4.05
		c-2.875,1.457-3.393,2.183-1.689,4.91c6.013,9.625,14.494,16.358,24.387,21.542c3.754,1.968,7.514,3.923,10.942,6.453
		C64.912,102.849,67.85,106.907,66.685,113.475z M32.568,58.107c-2.661-2.827-4.746-5.619-7.84-7.392
		c-3.415-1.957-6.986-2.165-10.341-0.214c-5.513,3.204-8.41,7.983-7.875,14.583c0.382,4.722,2.113,8.962,4.429,12.994
		c6.31,10.983,14.901,19.97,24.697,27.861c5.355,4.313,10.924,8.308,17.537,10.567c2.215,0.757,3.961,0.672,5.557-1.449
		c2.954-3.926,2.862-6.483-0.925-9.645c-4.351-3.631-9.608-5.771-14.45-8.595C31.891,90.13,22.26,81.688,17.116,69.051
		c-1.577-3.875-0.949-5.127,2.887-6.512C24.06,61.074,28.138,59.667,32.568,58.107z"/>
	<path fill-rule="evenodd" clip-rule="evenodd" fill="#EC262A" d="M633.377,42.749c-2.503,7.731-4.79,14.794-7.073,21.858
		c-1.342,4.15-2.803,8.268-3.975,12.466c-1.064,3.817-4.032,1.792-6.169,2.234c-1.883,0.388-3.15-0.13-3.789-2.358
		c-4.429-15.46-8.98-30.885-13.556-46.303c-0.595-2.006-0.125-2.589,1.98-2.681c7.151-0.312,7.132-0.385,9.099,6.688
		c2.406,8.648,4.839,17.289,7.268,25.931c0.228,0.812,0.189,1.754,1.392,2.638c2.359-7.601,4.663-14.989,6.946-22.384
		c1.066-3.456,2.179-6.9,3.106-10.395c0.505-1.899,1.474-2.476,3.428-2.484c6.146-0.024,6.138-0.113,8.007,5.843
		c2.725,8.682,5.435,17.368,8.228,26.028c0.355,1.104,0.273,2.538,1.881,3.326c2.882-10.503,5.733-20.918,8.601-31.328
		c0.9-3.272,5.734-5.39,8.68-3.704c1.62,0.928,0.229,2.288-0.036,3.255c-3.72,13.588-7.563,27.143-11.375,40.705
		c-0.202,0.72-0.39,1.444-0.59,2.164c-1.44,5.168-3.025,6.029-8.471,5.131c-2.146-0.355-1.986-2.076-2.407-3.33
		c-3.372-10.042-6.626-20.123-9.929-30.188C634.355,45.05,633.99,44.272,633.377,42.749z"/>
	<path fill-rule="evenodd" clip-rule="evenodd" fill="#EC262A" d="M325.04,53.508c0.025,15.364-11.102,26.688-26.222,26.684
		c-15.359-0.004-26.277-11.043-26.256-26.55c0.021-15.125,11.089-26.386,26.064-26.52C313.965,26.986,325.014,38.023,325.04,53.508z
		 M282.002,53.746c0.048,10.102,7.297,17.916,16.718,18.022c9.928,0.112,17.168-7.688,17.026-18.342
		c-0.136-10.173-7.294-17.68-16.923-17.746C289.035,35.612,281.952,43.219,282.002,53.746z"/>
	<path fill-rule="evenodd" clip-rule="evenodd" fill="#EC262A" d="M338.909,53.672c0.018-15.312,10.894-26.425,26.005-26.576
		c15.147-0.151,26.501,11.238,26.496,26.579c-0.004,15.127-11.56,26.637-26.619,26.512
		C349.471,80.061,338.891,69.222,338.909,53.672z M381.88,53.695c-0.005-10.451-7.146-18.045-16.938-18.013
		c-9.66,0.032-16.717,7.524-16.754,17.784c-0.036,10.234,7.4,18.32,16.841,18.313C374.891,71.771,381.886,64.265,381.88,53.695z"/>
	<path fill-rule="evenodd" clip-rule="evenodd" fill="#EC262A" d="M500.216,45.274c0,10.229-0.196,20.465,0.1,30.686
		c0.112,3.913-2.052,3.334-4.419,3.41c-2.444,0.078-4.114,0.144-4.061-3.368c0.226-14.495,0.052-28.996,0.16-43.493
		c0.012-1.473-1.299-4.017,1.27-4.334c2.379-0.294,5.066-1.1,7.155,1.656c7.769,10.255,15.736,20.359,23.632,30.517
		c0.608,0.782,1.24,1.545,2.512,3.124c0-2.722,0-4.626,0-6.529c0-8.624,0.054-17.249-0.038-25.872
		c-0.022-2.075,0.194-3.15,2.755-3.132c5.552,0.04,5.554-0.125,5.554,5.544c0,13.874,0.038,27.747-0.061,41.619
		c-0.011,1.383,1.21,3.806-1.102,4.062c-2.371,0.263-5.129,1.24-7.207-1.499c-5.964-7.86-12.095-15.593-18.167-23.371
		c-2.437-3.119-4.895-6.221-7.343-9.332C500.709,45.066,500.462,45.17,500.216,45.274z"/>
	<path fill-rule="evenodd" clip-rule="evenodd" fill="#EC262A" d="M408.799,53.409c-0.001-7.488,0.085-14.978-0.053-22.463
		c-0.041-2.261,0.542-2.992,2.888-3.008c6.105-0.041,12.212-0.536,18.298,0.341c13.793,1.987,21.573,10.614,22.042,24.416
		c0.443,13.058-8.045,23.507-21.103,26.026c-6.691,1.291-13.436,0.543-20.159,0.644c-2.241,0.034-1.91-1.403-1.911-2.744
		C408.796,68.883,408.799,61.146,408.799,53.409z M417.704,53.768c0,3.499,0,6.996,0,10.494c0,7.466,0,7.466,7.625,6.776
		c10.954-0.991,17.463-7.905,17.222-18.294c-0.231-9.935-6.868-15.971-18.042-16.382c-1.368-0.05-2.75,0.108-4.11-0.015
		c-2.157-0.196-2.791,0.712-2.734,2.806C417.793,44.021,417.705,48.896,417.704,53.768z"/>
	<path fill-rule="evenodd" clip-rule="evenodd" fill="#EC262A" d="M258.175,62.503c0,1.999-0.289,4.049,0.059,5.985
		c0.741,4.116-1.431,6.214-4.679,7.899c-7.291,3.782-14.884,4.864-22.834,2.645c-13.874-3.875-20.962-18.25-16.648-33.644
		c4.512-16.102,23.195-23.346,37.694-14.876c4.025,2.351,0.997,4.173,0.319,6.276c-0.793,2.466-1.987,2.288-4.098,1.103
		c-6.286-3.526-14.601-2.749-19.732,1.486c-5.277,4.355-7.345,13.353-4.841,21.063c2.217,6.825,7.397,10.736,15.176,11.246
		c3.162,0.208,6.176-0.647,9.025-2.027c3.982-1.929,1.967-5.543,1.981-8.324c0.012-2.375-2.56-0.933-3.952-1.213
		c-1.081-0.217-2.271-0.211-3.358-0.013c-3.872,0.706-4.755-0.932-4.648-4.624c0.088-3.061,0.722-4.108,3.903-3.88
		c4.226,0.303,8.514,0.358,12.729-0.013c3.527-0.31,4.284,1.056,3.95,4.169C257.983,57.985,258.175,60.254,258.175,62.503z"/>
	<path fill-rule="evenodd" clip-rule="evenodd" fill="#EC262A" d="M555.934,53.599c0-7.5,0.06-15.001-0.04-22.5
		c-0.026-2.097,0.253-3.191,2.784-3.144c7.997,0.151,16,0.105,23.999,0.02c1.898-0.021,2.823,0.464,2.585,2.5
		c-0.114,0.987-0.117,2.009,0,2.995c0.279,2.351-0.459,3.296-3.041,3.175c-4.739-0.223-9.499,0.026-14.246-0.103
		c-2.149-0.058-3.017,0.39-3.053,2.833c-0.149,9.907-0.247,9.905,9.585,9.905c1.375,0,2.776,0.174,4.119-0.034
		c3.684-0.57,5,0.637,4.774,4.565c-0.17,2.978-0.645,4.203-3.901,3.961c-4.102-0.306-8.245-0.018-12.369-0.098
		c-1.581-0.031-2.354,0.449-2.14,2.103c0.031,0.246,0.006,0.5,0,0.75c-0.266,10.238-0.266,10.238,9.893,10.238
		c2.749,0,5.511,0.157,8.246-0.047c2.374-0.177,3.174,0.692,2.888,2.967c-0.139,1.108-0.108,2.255-0.006,3.371
		c0.167,1.816-0.596,2.332-2.367,2.315c-8.374-0.078-16.751-0.11-25.124,0.013c-2.316,0.035-2.641-0.959-2.62-2.913
		C555.981,68.85,555.934,61.225,555.934,53.599z"/>
	<path fill-rule="evenodd" clip-rule="evenodd" fill="#EC262A" d="M695.229,80.189c-4.859-0.303-9.935-1.495-14.128-5.452
		c-3.639-3.434,0.39-4.845,1.586-6.979c1.595-2.847,2.705-0.401,3.876,0.489c3.542,2.691,7.421,4.139,11.878,3.005
		c4.891-1.244,6.213-6.227,2.705-9.901c-1.771-1.854-4.122-2.771-6.348-3.89c-2.338-1.176-4.755-2.222-6.986-3.573
		c-5.814-3.52-8.457-9.166-7.285-15.163c1.206-6.168,5.859-10.293,12.844-11.272c5.254-0.735,10.149,0.263,14.668,3.14
		c1.916,1.22,2.709,2.417,0.869,4.35c-0.766,0.806-1.363,1.788-1.952,2.743c-0.832,1.347-1.608,1.599-2.933,0.44
		c-2.276-1.993-5.075-2.526-8.049-2.344c-2.671,0.164-5.011,0.956-5.875,3.75c-0.865,2.796,0.09,5.145,2.373,6.96
		c3.078,2.447,6.858,3.528,10.285,5.298c4.084,2.109,7.712,4.648,9.103,9.372C714.832,71.245,707.357,80.122,695.229,80.189z"/>
	<path fill-rule="evenodd" clip-rule="evenodd" fill="#EC262A" d="M125.728,13.209c1.06-0.211,1.558,0.625,2.16,1.207
		c7.634,7.367,15.22,14.785,22.91,22.092c1.479,1.404,1.883,1.989-0.378,2.914c-8.53,3.484-17.01,7.092-25.469,10.745
		c-1.48,0.64-2.417,0.533-3.565-0.662c-7.354-7.649-14.783-15.225-22.191-22.821c-0.979-1.004-1.679-1.86,0.271-2.663
		c8.409-3.462,16.79-6.99,25.184-10.487C124.993,13.391,125.365,13.317,125.728,13.209z"/>
	<path fill-rule="evenodd" clip-rule="evenodd" fill="#EC262A" d="M109.152,50.635c-0.053,1.689-0.937,2.742-2.476,3.366
		c-13.016,5.272-26.03,10.55-39.035,15.849c-2.005,0.817-3.551,0.167-4.301-1.647c-0.971-2.348,0.425-3.723,2.526-4.576
		c9.213-3.738,18.422-7.488,27.63-11.238c3.568-1.454,7.101-3,10.707-4.353C106.962,47.001,109.064,48.199,109.152,50.635z"/>
	<path fill-rule="evenodd" clip-rule="evenodd" fill="#EC262A" d="M95.379,36.279c0.122,1.601-0.963,2.562-2.443,3.167
		c-12.922,5.274-25.848,10.54-38.783,15.781c-1.849,0.75-3.61,0.443-4.438-1.485c-0.875-2.038-0.06-3.654,2.037-4.508
		c13.039-5.312,26.066-10.654,39.134-15.895C93.349,32.35,95.308,33.699,95.379,36.279z"/>
</g>
</svg>
