<?xml version="1.0" encoding="utf-8"?>
<!-- Generator: Adobe Illustrator 16.0.0, SVG Export Plug-In . SVG Version: 6.00 Build 0)  -->
<!DOCTYPE svg PUBLIC "-//W3C//DTD SVG 1.1//EN" "http://www.w3.org/Graphics/SVG/1.1/DTD/svg11.dtd">
<svg version="1.1" id="Layer_1" xmlns="http://www.w3.org/2000/svg" xmlns:xlink="http://www.w3.org/1999/xlink" x="0px" y="0px"
	 width="106.368px" height="18.427px" viewBox="0 0 106.368 18.427" enable-background="new 0 0 106.368 18.427"
	 xml:space="preserve">
<g>
	<path fill-rule="evenodd" clip-rule="evenodd" fill="#EC262A" d="M19.729,0c1.367,0.522,2.219,1.695,3.269,2.612
		c1.192,1.042,2.333,2.142,3.493,3.219c0.595,0.552,0.541,0.86-0.194,1.17c-0.514,0.217-1.029,0.431-1.55,0.649
		c0.018,0.252,0.248,0.312,0.39,0.439c0.982,0.884,1.173,2.065,0.519,3.174c-0.188,0.319-0.436,0.536-0.782,0.676
		c-5.19,2.094-10.383,4.183-15.562,6.306c-0.73,0.299-1.377,0.196-2.041-0.084C5.967,17.609,4.866,16.75,3.835,15.8
		c-1.35-1.245-2.562-2.603-3.344-4.291C0.308,11.113,0.163,10.698,0,10.292c0-0.485,0-0.971,0-1.456
		c0.369-1.036,0.963-1.895,2.016-2.315C7.474,4.343,12.937,2.18,18.398,0.012C18.842,0.008,19.285,0.004,19.729,0z M4.216,6.7
		c0.292,0.263,0.542,0.46,0.76,0.687c1.592,1.651,3.186,3.301,4.76,4.969c0.289,0.307,0.522,0.34,0.908,0.177
		c4.799-2.031,9.605-4.046,14.414-6.053c0.395-0.165,0.431-0.274,0.104-0.571c-1.49-1.355-3.001-2.69-4.424-4.112
		c-0.926-0.925-1.87-0.975-2.998-0.51c-2.563,1.057-5.14,2.079-7.714,3.108C8.111,5.161,6.191,5.917,4.216,6.7z M9.955,16.94
		c0.184-0.066,0.287-0.1,0.387-0.14c4.656-1.879,9.312-3.759,13.968-5.641c0.69-0.279,0.99-1.001,0.706-1.687
		c-0.338-0.817-1.313-1.381-1.935-1.12c-4.184,1.756-8.37,3.506-12.548,5.275c-0.464,0.197-0.776,0.15-1.125-0.232
		c-0.88-0.963-1.893-1.817-2.681-2.846c-0.804-1.049-1.615-1.169-2.73-0.604c-0.429,0.218-0.506,0.326-0.252,0.733
		c0.897,1.437,2.164,2.442,3.641,3.215c0.56,0.294,1.122,0.586,1.633,0.963C9.69,15.354,10.129,15.959,9.955,16.94z M4.862,8.674
		C4.465,8.252,4.153,7.835,3.691,7.571c-0.51-0.292-1.043-0.323-1.543-0.032C1.325,8.018,0.893,8.731,0.972,9.716
		c0.057,0.705,0.315,1.338,0.661,1.939c0.942,1.64,2.225,2.981,3.687,4.159c0.799,0.644,1.631,1.24,2.618,1.578
		c0.331,0.113,0.591,0.1,0.83-0.216c0.441-0.586,0.428-0.968-0.138-1.44c-0.649-0.542-1.434-0.861-2.157-1.283
		c-1.712-0.999-3.149-2.259-3.917-4.146C2.32,9.73,2.414,9.543,2.986,9.336C3.592,9.118,4.201,8.907,4.862,8.674z"/>
	<path fill-rule="evenodd" clip-rule="evenodd" fill="#EC262A" d="M94.554,6.382c-0.374,1.154-0.715,2.208-1.056,3.263
		c-0.2,0.62-0.418,1.234-0.593,1.861c-0.159,0.57-0.602,0.268-0.921,0.333c-0.281,0.058-0.471-0.02-0.566-0.352
		c-0.661-2.308-1.34-4.611-2.023-6.912c-0.089-0.3-0.019-0.387,0.295-0.4c1.068-0.047,1.065-0.058,1.358,0.999
		c0.359,1.291,0.722,2.581,1.085,3.871c0.034,0.121,0.028,0.262,0.208,0.394c0.352-1.135,0.696-2.238,1.037-3.342
		c0.159-0.516,0.325-1.03,0.464-1.552c0.075-0.283,0.22-0.37,0.512-0.371c0.917-0.004,0.917-0.017,1.195,0.872
		c0.407,1.296,0.812,2.593,1.229,3.886c0.053,0.165,0.041,0.379,0.281,0.497c0.43-1.568,0.855-3.123,1.284-4.677
		c0.134-0.489,0.856-0.805,1.295-0.553c0.242,0.139,0.034,0.342-0.005,0.486c-0.556,2.029-1.129,4.052-1.698,6.077
		c-0.03,0.107-0.059,0.215-0.088,0.323c-0.215,0.771-0.452,0.899-1.265,0.766c-0.32-0.053-0.296-0.31-0.359-0.497
		c-0.503-1.499-0.989-3.004-1.482-4.506C94.7,6.725,94.646,6.609,94.554,6.382z"/>
	<path fill-rule="evenodd" clip-rule="evenodd" fill="#EC262A" d="M48.524,7.988c0.003,2.294-1.658,3.984-3.915,3.984
		c-2.293,0-3.923-1.649-3.92-3.964c0.003-2.257,1.656-3.939,3.891-3.958C46.871,4.029,48.52,5.676,48.524,7.988z M42.099,8.024
		c0.007,1.508,1.089,2.674,2.496,2.69c1.482,0.017,2.563-1.148,2.542-2.739c-0.021-1.519-1.089-2.639-2.526-2.649
		C43.149,5.316,42.091,6.452,42.099,8.024z"/>
	<path fill-rule="evenodd" clip-rule="evenodd" fill="#EC262A" d="M50.595,8.013c0.002-2.286,1.626-3.945,3.882-3.967
		c2.261-0.023,3.956,1.678,3.956,3.968c0,2.258-1.726,3.977-3.974,3.958C52.171,11.952,50.592,10.334,50.595,8.013z M57.009,8.016
		c0-1.56-1.067-2.694-2.528-2.689c-1.442,0.005-2.496,1.124-2.501,2.655c-0.005,1.527,1.105,2.735,2.515,2.733
		C55.966,10.714,57.01,9.594,57.009,8.016z"/>
	<path fill-rule="evenodd" clip-rule="evenodd" fill="#EC262A" d="M74.675,6.759c0,1.527-0.029,3.055,0.015,4.581
		c0.017,0.584-0.306,0.498-0.66,0.509c-0.365,0.011-0.614,0.021-0.606-0.503c0.034-2.164,0.008-4.329,0.024-6.493
		c0.002-0.22-0.194-0.6,0.189-0.647c0.355-0.043,0.756-0.164,1.068,0.248c1.159,1.531,2.349,3.039,3.528,4.556
		c0.091,0.117,0.185,0.23,0.375,0.466c0-0.406,0-0.691,0-0.975c0-1.287,0.008-2.575-0.006-3.862
		c-0.003-0.31,0.029-0.471,0.412-0.468c0.829,0.006,0.829-0.019,0.829,0.828c0,2.071,0.006,4.142-0.009,6.213
		c-0.001,0.206,0.181,0.568-0.165,0.606c-0.354,0.039-0.766,0.185-1.076-0.224c-0.891-1.173-1.806-2.328-2.712-3.489
		c-0.363-0.465-0.73-0.929-1.096-1.393C74.749,6.728,74.712,6.743,74.675,6.759z"/>
	<path fill-rule="evenodd" clip-rule="evenodd" fill="#EC262A" d="M61.028,7.973c0-1.118,0.013-2.236-0.008-3.354
		c-0.006-0.337,0.081-0.446,0.431-0.449c0.912-0.006,1.823-0.08,2.731,0.051c2.06,0.296,3.221,1.584,3.291,3.645
		c0.066,1.949-1.201,3.509-3.15,3.885c-0.999,0.193-2.006,0.081-3.01,0.096c-0.334,0.005-0.285-0.209-0.285-0.41
		C61.028,10.283,61.028,9.128,61.028,7.973z M62.357,8.027c0,0.522,0,1.044,0,1.566c0,1.115,0,1.115,1.138,1.012
		c1.635-0.148,2.607-1.18,2.571-2.731c-0.035-1.483-1.025-2.384-2.693-2.446c-0.205-0.007-0.411,0.016-0.614-0.002
		c-0.322-0.029-0.417,0.106-0.408,0.419C62.371,6.572,62.357,7.299,62.357,8.027z"/>
	<path fill-rule="evenodd" clip-rule="evenodd" fill="#EC262A" d="M38.542,9.331c0,0.299-0.043,0.604,0.009,0.894
		c0.11,0.614-0.213,0.927-0.698,1.179c-1.089,0.564-2.223,0.726-3.409,0.395c-2.071-0.578-3.129-2.724-2.485-5.022
		c0.673-2.403,3.463-3.485,5.627-2.221c0.601,0.351,0.148,0.623,0.047,0.937c-0.118,0.368-0.297,0.341-0.612,0.165
		c-0.938-0.526-2.18-0.41-2.946,0.222c-0.788,0.65-1.096,1.994-0.723,3.145c0.331,1.019,1.104,1.603,2.266,1.679
		c0.472,0.031,0.922-0.097,1.348-0.302c0.594-0.288,0.293-0.828,0.295-1.243c0.002-0.354-0.382-0.14-0.59-0.181
		c-0.162-0.032-0.339-0.032-0.501-0.002c-0.578,0.105-0.71-0.139-0.694-0.69c0.013-0.457,0.108-0.613,0.583-0.579
		c0.631,0.045,1.271,0.053,1.9-0.002c0.527-0.046,0.64,0.158,0.59,0.623C38.513,8.657,38.542,8.995,38.542,9.331z"/>
	<path fill-rule="evenodd" clip-rule="evenodd" fill="#EC262A" d="M82.993,8.001c0-1.119,0.009-2.239-0.006-3.359
		c-0.004-0.313,0.038-0.476,0.416-0.469c1.194,0.022,2.389,0.016,3.583,0.003c0.284-0.003,0.422,0.069,0.386,0.373
		c-0.017,0.147-0.018,0.3,0,0.447c0.042,0.351-0.069,0.492-0.454,0.474C86.21,5.438,85.5,5.475,84.791,5.456
		c-0.321-0.009-0.451,0.058-0.456,0.423c-0.022,1.479-0.037,1.479,1.431,1.479c0.206,0,0.415,0.026,0.615-0.005
		c0.55-0.085,0.746,0.095,0.713,0.682c-0.025,0.444-0.096,0.627-0.583,0.591C85.899,8.58,85.28,8.622,84.665,8.61
		c-0.236-0.004-0.351,0.067-0.319,0.314c0.004,0.037,0,0.075,0,0.112c-0.04,1.528-0.04,1.528,1.477,1.528
		c0.41,0,0.822,0.023,1.231-0.007c0.354-0.027,0.474,0.104,0.431,0.443c-0.021,0.166-0.017,0.337-0.001,0.503
		c0.025,0.271-0.089,0.348-0.354,0.346c-1.25-0.012-2.501-0.016-3.75,0.002c-0.346,0.005-0.395-0.144-0.392-0.435
		C83,10.278,82.993,9.14,82.993,8.001z"/>
	<path fill-rule="evenodd" clip-rule="evenodd" fill="#EC262A" d="M103.788,11.971c-0.725-0.045-1.483-0.223-2.109-0.814
		c-0.543-0.513,0.059-0.723,0.237-1.042c0.238-0.425,0.404-0.06,0.578,0.073c0.529,0.402,1.108,0.618,1.773,0.449
		c0.73-0.186,0.928-0.93,0.404-1.478c-0.264-0.277-0.615-0.414-0.948-0.581c-0.349-0.175-0.709-0.332-1.043-0.533
		c-0.868-0.525-1.262-1.369-1.087-2.264c0.18-0.92,0.875-1.537,1.917-1.683c0.784-0.11,1.515,0.04,2.189,0.469
		c0.286,0.182,0.405,0.361,0.13,0.649c-0.114,0.121-0.204,0.268-0.291,0.41c-0.125,0.201-0.24,0.238-0.438,0.065
		c-0.34-0.298-0.757-0.377-1.201-0.35c-0.399,0.025-0.748,0.143-0.877,0.56c-0.129,0.417,0.013,0.768,0.354,1.039
		c0.459,0.365,1.024,0.527,1.536,0.791c0.609,0.314,1.151,0.694,1.359,1.399C106.714,10.636,105.599,11.961,103.788,11.971z"/>
	<path fill-rule="evenodd" clip-rule="evenodd" fill="#EC262A" d="M18.77,1.972c0.158-0.031,0.232,0.094,0.322,0.18
		c1.14,1.1,2.272,2.208,3.42,3.298c0.221,0.209,0.281,0.297-0.056,0.435c-1.273,0.52-2.539,1.059-3.802,1.604
		c-0.221,0.095-0.361,0.08-0.532-0.099c-1.098-1.142-2.207-2.272-3.313-3.406c-0.146-0.15-0.251-0.278,0.04-0.398
		c1.255-0.517,2.507-1.043,3.76-1.566C18.66,1.999,18.715,1.988,18.77,1.972z"/>
	<path fill-rule="evenodd" clip-rule="evenodd" fill="#EC262A" d="M16.295,7.559c-0.008,0.252-0.14,0.409-0.37,0.502
		c-1.943,0.787-3.886,1.575-5.827,2.366c-0.299,0.122-0.53,0.025-0.642-0.246C9.311,9.831,9.52,9.626,9.833,9.499
		c1.375-0.558,2.75-1.118,4.125-1.678c0.533-0.217,1.06-0.448,1.599-0.649C15.968,7.017,16.282,7.195,16.295,7.559z"/>
	<path fill-rule="evenodd" clip-rule="evenodd" fill="#EC262A" d="M14.239,5.416c0.018,0.239-0.144,0.382-0.365,0.473
		c-1.929,0.788-3.858,1.574-5.79,2.356C7.809,8.356,7.545,8.311,7.422,8.023C7.291,7.718,7.413,7.477,7.726,7.35
		c1.947-0.792,3.892-1.59,5.842-2.373C13.936,4.83,14.229,5.031,14.239,5.416z"/>
</g>
</svg>
